subject01_walk1_RRA_states
nRows=4
nColumns=47

# SIMM Motion File Header:
name subject01_walk1_RRA_states
datacolumns 47
datarows 4
otherdata 1
range 1.12299999999998670000 1.12449999999998650000
endheader
time	pelvis_tx	pelvis_ty	pelvis_tz	pelvis_tilt	pelvis_list	pelvis_rotation	hip_flexion_r	hip_adduction_r	hip_rotation_r	knee_angle_r	ankle_angle_r	subtalar_angle_r	mtp_angle_r	hip_flexion_l	hip_adduction_l	hip_rotation_l	knee_angle_l	ankle_angle_l	subtalar_angle_l	mtp_angle_l	lumbar_extension	lumbar_bending	lumbar_rotation	pelvis_tx_u	pelvis_ty_u	pelvis_tz_u	pelvis_tilt_u	pelvis_list_u	pelvis_rotation_u	hip_flexion_r_u	hip_adduction_r_u	hip_rotation_r_u	knee_angle_r_u	ankle_angle_r_u	subtalar_angle_r_u	mtp_angle_r_u	hip_flexion_l_u	hip_adduction_l_u	hip_rotation_l_u	knee_angle_l_u	ankle_angle_l_u	subtalar_angle_l_u	mtp_angle_l_u	lumbar_extension_u	lumbar_bending_u	lumbar_rotation_u
      1.12299999999998670000	      0.57903293831585811000	      1.03776657251202580000	      0.05379113360927176300	      4.91865024604863340000	     -2.77467182299676860000	     -1.35571185155024620000	    -13.56360303353506900000	      4.85355791388005290000	     -1.27033610980983760000	     -6.02839060250911010000	     10.53516610986310200000	     -0.06909235499451026100	      0.01527728896172016900	     19.60688433271062100000	     -5.62927265648712980000	     -9.63465994262419480000	    -18.09950328441481200000	     -1.17723270039651860000	      0.00530889383865051300	     -0.02098033192430912000	    -16.73605789071713800000	      3.62127080835444780000	      2.85258526057127650000	     -0.07646934107480761500	     -0.16576455779442406000	      0.00360839820228682280	     -5.57105954092130420000	    -31.25713938798833500000	    -19.42349414405794400000	    -78.99627766730138500000	     24.97017660951959800000	     37.66564947479057000000	     29.26315648515602800000	     25.10292750241859500000	     -1.97666363387446900000	      0.78953100299830381000	    -18.22451715150112900000	    -12.89970724067863000000	      6.34785146440670630000	    334.97405105612597000000	    -18.30170695087688400000	     -0.01411412675546301300	      0.16031165796188207000	      0.17751832763094186000	     21.51532463415848500000	     17.16747985482144000000
      1.12349999999998660000	      0.57899481884824255000	      1.03768358295947420000	      0.05379284380886922800	      4.91587833830747290000	     -2.79028030773990520000	     -1.36543745358725490000	    -13.60309790543249500000	      4.86600322369753700000	     -1.25148858778581280000	     -6.01381071145559340000	     10.54772718479969600000	     -0.07008010064589789700	      0.01567162660030711400	     19.59774121544660000000	     -5.63567594076579590000	     -9.63127870414282760000	    -17.93221855246264300000	     -1.18628551280972890000	      0.00530180182351564550	     -0.02090026610789743800	    -16.73598288190957100000	      3.63199770045759030000	      2.86116091709416450000	     -0.07600826988468341300	     -0.16619269057360009000	      0.00323243729580146260	     -5.51642886604787460000	    -31.17652807755755300000	    -19.47884672649557200000	    -78.98322423808386400000	     24.81076827863621800000	     37.72407120749548400000	     29.05620056609762600000	     25.14163874512824000000	     -1.97409885320832190000	      0.78728341100298405000	    -18.34761027315662600000	    -12.71356211241353200000	      7.17679349654918310000	    334.16240203100972000000	    -17.90921742739260800000	     -0.01426892961559881100	      0.15996969635660718000	      0.12238734754658401000	     21.39191079525744900000	     17.13501549694505500000
      1.12399999999998660000	      0.57895693030206230000	      1.03760038078012880000	      0.05379436608329341700	      4.91313395822770360000	     -2.80584807434832010000	     -1.37519063176114380000	    -13.64258626812133100000	      4.87836838161964260000	     -1.23261241490739160000	     -5.99933461681181870000	     10.56030767539746900000	     -0.07106643759519543100	      0.01606461304659516000	     19.58853706732519800000	     -5.64198634489843530000	     -9.62748347031566350000	    -17.76534336028310400000	     -1.19514156992553260000	      0.00529462478105710480	     -0.02082036282416758000	    -16.73593563124673600000	      3.64266238020128870000	      2.86972014461488680000	     -0.07554566277035411300	     -0.16661507145776958000	      0.00285669744150237990	     -5.46095218900155020000	    -31.09425619624069600000	    -19.53380032410917300000	    -78.97023272751538100000	     24.64955666839206200000	     37.78023745407112000000	     28.84795588075031600000	     25.17997030065957300000	     -1.97141903633481070000	      0.78517802345322607000	    -18.46863373405108900000	    -12.52817470491934400000	      8.00380713996008450000	    333.33588670049488000000	    -17.51464111396090600000	     -0.01442453761550986000	      0.15962419630443545000	      0.06648941513863690400	     21.26646303118028300000	     17.10176253229790400000
      1.12449999999998650000	      0.57891927343871075000	      1.03751696884020840000	      0.05379570054704842200	      4.91041752472426210000	     -2.82137428963220890000	     -1.38497118594372660000	    -13.68206814485738800000	      4.89065248233273660000	     -1.21370873686732230000	     -5.98496297253370010000	     10.57290682580256700000	     -0.07205158941352499100	      0.01645728105564548500	     19.57927293085846900000	     -5.64820424575408090000	     -9.62327524296014580000	    -17.59888514918966300000	     -1.20379982067135450000	      0.00528737770601922250	     -0.02074064268139290400	    -16.73591651685652300000	      3.65326382732756820000	      2.87826254762622160000	     -0.07508153685315689700	     -0.16703173968638932000	      0.00248120264875311340	     -5.40464424942212050000	    -31.01033810600212300000	    -19.58834624908310900000	    -78.95728115580084200000	     24.48655661396847100000	     37.83408831138955700000	     28.63841009141067000000	     25.21642144693961300000	     -1.96912587633988310000	      0.78576868548136347000	    -18.58756188558331200000	    -12.34356871221829800000	      8.82874386823372600000	    332.49447193497321000000	    -17.11806594012196900000	     -0.01457784131361574700	      0.15927415310269663000	      0.00984574279277271140	     21.13899788241493400000	     17.06771765034921600000
